<svg xmlns="http://www.w3.org/2000/svg" viewBox="0 0 1005.11 871.15"><defs><style>.cls-1,.cls-3{fill:#fff;}.cls-1,.cls-2,.cls-3{stroke:#001881;stroke-miterlimit:10;}.cls-1,.cls-2{stroke-width:2px;}.cls-2{fill:#e0040b;}</style></defs><g id="Calavera"><path class="cls-1" d="M524.4,592.85c9.39,1.57,15.71,3.1,21.3,5.19,17.61,6.59,30.53,17.3,39.32,32.64,2.51,4.37,6.37,13.18,6.83,15.59.09.34.46,1.68.84,3,2.51,8.41,3.75,18.25,3.75,30.18a151.43,151.43,0,0,1-2.71,29.52c-.32,1.62-.64,3.31-.73,3.75s-.63,3-1.26,5.77-1.42,6.53-1.79,8.41l-.69,3.4-.2-2.75a13.65,13.65,0,0,0-4.27-9.37,71.81,71.81,0,0,1-7.12-9c-4.5-7.63-5.51-16-3.14-25.49.57-2.32,1.12-4.28,1.21-4.44s.52-1.69,2.51-9,2.62-12.27,2.42-18.11c-.21-6.06-1.33-10-4.3-14.74a11.5,11.5,0,0,0-1.44-2c-.2-.15-.06.25.29.85A28.73,28.73,0,0,1,579,648.33c.46,6.4-.55,12.4-3.72,22.18-3.58,11-5.19,16.43-5.48,18.27a48.51,48.51,0,0,0-.29,5.4c0,9.53,3.32,17.43,10.81,25.83,3.32,3.75,3.89,5,3.89,8.91a41.34,41.34,0,0,1-.31,5,44,44,0,0,0-.32,5.47c0,2.84.08,3.75.63,5.25a10.45,10.45,0,0,0,5,6.06c2.48,1.31,2.77,1.9,1.93,4.15a15.94,15.94,0,0,1-3.92,6.22c-2.94,2.93-5.94,4.56-11.7,6.34-3.23,1-3.29,1-9.46,1a45,45,0,0,1-14.56-1.84,137.81,137.81,0,0,1-19-7L531,758.9l.86.69c.46.41,1.07.84,1.33,1s1.09.78,1.87,1.34c4.41,3.22,13.55,7.09,20,8.53l3.31.72-2.73.53c-6.26,1.19-10.18,2.94-13.93,6.22a23,23,0,0,0-7.23,12.24c-.52,2.44-.55,3.65,0,2.12,1.76-5.15,5.21-9.74,8.85-11.74.78-.41,1.44-.75,1.5-.75a2,2,0,0,1,0,.91c-.18,1.25.63,4.06,2,6.93,2.07,4.5,2.27,5.34,2.27,9.5a19.52,19.52,0,0,1-.29,4.21c-.2.35-.77.47-2,.47l-1.73,0v1.69a6.88,6.88,0,0,1-.29,2.25c-.55,1.09-2.68,1.5-4.33.78-.37-.13-.46.09-.48,1.12a4.08,4.08,0,0,1-.38,1.69c-.78,1-3.34,1.34-5,.62-.4-.18-.52-.06-.52.6,0,1.62-1.81,2.62-4.23,2.31a7.89,7.89,0,0,1-1.59-.38c-.37-.18-.6,0-.84.56-.52,1.22-3,1.94-4.81,1.44-1.21-.31-1.36-.28-1.76.25-1.15,1.56-4.55,2.16-6.37,1.16-.78-.44-.86-.44-1.15.18-.49,1-2.51,1.85-4.33,1.85s-3.83-.88-4.29-1.85c-.29-.59-.38-.59-1.33-.15-2.07.94-5.07.37-6.22-1.19-.41-.53-.55-.56-1.76-.25-1.85.5-4.3-.22-4.82-1.44-.23-.59-.46-.74-.83-.59a5.09,5.09,0,0,1-5.1-.28,1.69,1.69,0,0,1-.75-1.81c0-.13-.75-.16-1.68-.06-2.88.34-4.35-.5-4.35-2.47v-1.06l-1.53.15c-1.67.16-3.34-.5-3.4-1.34,0-.25-.09-.62-.12-.78s-.08-.88-.11-1.56l0-1.25h-1.5c-2.36,0-2.53-.35-2.53-4.66,0-2.59.11-3.87.43-4.53a4.57,4.57,0,0,0,.43-1.18,40,40,0,0,1,1.61-3.88c1.53-3.4,2.17-5.77,1.94-7.3-.09-.57,0-.66.4-.5a17.73,17.73,0,0,1,5.59,4.53c1.82,2.12,2.45,3.27,4.53,8.15.29.68.32.65.17-.47a26.56,26.56,0,0,0-3.69-9.84c-4-5.81-9.8-9.21-18.13-10.65a9.32,9.32,0,0,1-2.16-.47c.05,0,1.44-.37,3.08-.75a56.68,56.68,0,0,0,14.88-5.53,53,53,0,0,0,8-5.15c.84-.78.66-.72-2.25.59a108.23,108.23,0,0,1-21.19,7.15c-3.54.78-4.49.85-10.37.88h-6.49l-3.6-1.16c-8-2.59-12.69-6.4-14.88-12-1-2.6-.78-3.22,1.76-4.53,4.27-2.16,6.31-7.21,5.59-13.84-.14-1.37-.34-4.34-.46-6.59-.14-3.9-.14-4.18.55-5.78a14.69,14.69,0,0,1,2.42-3.56c8.16-9,11.65-17,11.65-26.67,0-5.69-.23-6.69-4.07-18.34-1.24-3.81-2.65-8.24-3.11-9.84-3.72-12.74-3.29-21.58,1.44-29.92,1-1.81,1-1.94.29-1a33,33,0,0,0-3.95,7.15c-1.5,4-1.7,5.44-1.67,11.75,0,7.5.46,9.87,4.58,24.36,2.57,9.06,2.57,9.18,2.57,14.68,0,4.53-.09,5.25-.81,7.81-1.56,5.59-4.56,10.59-9.54,16-3.89,4.22-5,6.47-5.31,10.53l-.17,2.87-.81-4.06c-.46-2.25-1.32-6.25-1.93-8.9a191.82,191.82,0,0,1-4.09-25.46,211.27,211.27,0,0,1,0-24.14c1.84-18.65,7.2-33.27,16.8-45.67,6.26-8.09,12.92-13.71,22.58-19.08,6.28-3.5,16.57-7.31,22.37-8.28.54-.09,1.47-.28,2-.44,1.44-.37,10.35-1.84,13.26-2.18,1.36-.16,6.55-.22,11.53-.16C518.49,592,520,592.14,524.4,592.85ZM455.64,773.74a23.25,23.25,0,0,1,3.78,1,37.63,37.63,0,0,1,2,6.25c.8,3.25,4.09,17.46,4.7,20.36.28,1.28.77,3.35,1.09,4.59l.61,2.25.8-.65c1.5-1.22,4-.31,4,1.46,0,.6.17.66,1.7.63,2,0,2.91.66,2.91,2.06,0,.81.06.88.75.6a5.64,5.64,0,0,1,3.87.09,2.32,2.32,0,0,1,1,1.56c.23.91.37,1.13.72.94a8.55,8.55,0,0,1,2.07-.35c1.85-.12,3.26.47,3.58,1.5.17.6.23.6,1.21.16a6.83,6.83,0,0,1,2.36-.47,4,4,0,0,1,4.12,2.87c.06.13.67,0,1.39-.25,2.07-.78,6-.06,6.4,1.16.08.25.52.22,1.47-.16a8.65,8.65,0,0,1,5.53,0c1,.38,1.18.38,1.65,0,1.26-1.28,4.06-1.68,6.34-.94l1.29.41.32-1c.64-1.81,3.89-2.65,6.26-1.59.89.4,1,.4,1,0s.43-.72.95-1.09a3.67,3.67,0,0,1,2.65-.51,9.76,9.76,0,0,1,2.19.32c.35.19.49,0,.72-.94a2.28,2.28,0,0,1,1-1.56,5.61,5.61,0,0,1,3.86-.09c.7.28.75.21.75-.6,0-1.31.93-2,2.54-2a10.52,10.52,0,0,1,1.79.13c.29.09.43-.13.46-.66,0-1.4.11-1.5,1.12-1.87s2.71-.16,2.94.5c.09.25.23.44.35.44s1.15-3.28,2-7.19c2.88-13.05,4.61-20.24,5.7-23.77.7-2.22.81-2.4,1.65-2.56.49-.09,2.45-.53,4.35-1,4.12-1,4-.94,3.75-.28-.32.94-1.56,6.21-2.88,12.31-1,4.74-1.5,6.37-2.68,8.9-4,8.71-5.83,16.27-6.4,26.77-.38,7-1.3,9.9-4.16,13.27-2.62,3.06-5.59,4.66-15.42,8.19-7.23,2.59-10.64,4.12-12.42,5.65-.41.31.31.06,1.58-.63a57.5,57.5,0,0,1,12-4.24c8.85-2.38,12.65-4.22,16-7.81s4.69-7.15,5.33-13.43a65.6,65.6,0,0,1,7-24.49c.77-1.47,1.35-2.41,1.26-2.06-.2.87-1.53,5.68-2.48,9.06-1.73,6-2.16,10.33-1.26,13.18a78.93,78.93,0,0,0,4.15,9.46,30.7,30.7,0,0,1,1.9,4.66c1.21,4.43-1,9.15-5.71,12.52-1.73,1.22-2.62,1.62-8.16,3.75-7.2,2.72-16.4,8.21-19.31,11.55a35.53,35.53,0,0,1-6.83,5.35c-6.26,3.75-14.71,5.43-23.56,4.68-4.64-.4-10-1.53-12.07-2.53-3.72-1.81-8-4.56-9.46-6.09a40.68,40.68,0,0,0-8-6.53,71.17,71.17,0,0,0-15.63-7.52c-6.05-1.88-10.95-7-11.33-11.91-.17-2.09.43-4.24,2.25-7.93a85.82,85.82,0,0,0,4.15-9.46c.87-2.81.41-7.66-1.38-13.65-.58-2-1.1-3.85-2.68-9.69-.2-.72,2.76,4.94,3.54,6.75a64.94,64.94,0,0,1,5.16,20.37c.78,7.15,2.34,11,6,14.65,3.08,3.06,6.69,4.71,15.88,7.27,5.71,1.6,10.15,3.19,12.2,4.41.77.5.92.5.49.12-1.07-1-6.32-3.5-9.8-4.68-10.61-3.63-13.79-5.13-16.55-7.88-3.89-3.81-4.79-6.34-5.36-15.05-.67-10.15-2.14-16.37-5.94-25a37.31,37.31,0,0,1-3-9.53c-.58-2.75-1.47-6.81-2-9s-1-4.06-1-4.12C450.74,772.8,452.15,773,455.64,773.74Z" transform="translate(-4.11 -0.15)"/><path class="cls-1" d="M554.09,679.78a15.35,15.35,0,0,0-5.88,1.91c-1.7.84-2.68,1.69-4.93,4.09-5.48,5.84-8.19,8.22-11.79,10.18a28.92,28.92,0,0,1-10.75,3.53l-2.11.25,2.08.72a11.92,11.92,0,0,0,5.3.6l3.2-.1-1,.87q-1.72,1.6-8.73,5.53c-7.18,4.07-8.08,5.38-9.09,13.28-.28,2.22-.6,4.34-.69,4.68s.12,0,.49-.78a36.44,36.44,0,0,0,1.76-4.9c1.16-3.78,2.19-5.62,3.84-6.78,1-.65,1.52-.78,4.69-.9,5.54-.25,9.46-1.82,12.6-5.1,1.07-1.09,1.3-1.43.64-.93a15.82,15.82,0,0,1-8.59,3c-1,0-.87-.13,1.61-1.53,3.86-2.22,5.59-3.82,10.38-9.47s7.15-7.93,10-9.46A13.91,13.91,0,0,1,558.33,687a23.86,23.86,0,0,1,6.89,3.19c1.7,1.31,1.15.31-.81-1.44-4.09-3.69-8.88-5.4-13.41-4.84a4.33,4.33,0,0,1-1.67,0c0-1,4.35-3.75,5.91-3.75a1.2,1.2,0,0,0,.87-.31c.08-.19-.06-.28-.35-.25Z" transform="translate(-4.11 -0.15)"/><path class="cls-1" d="M462.45,680.19a13.19,13.19,0,0,1,5.42,3.06l.8.94-2.3-.16a15.47,15.47,0,0,0-8.33,1.66,21.36,21.36,0,0,0-6.14,4.68l-.72.88,1.29-.85c5.51-3.59,10.9-4.65,15.42-3.06,4.24,1.53,6.58,3.47,12.57,10.5,5.05,5.93,6.55,7.31,10.47,9.59l2.62,1.53-2.16-.16a13.36,13.36,0,0,1-7-2.53l-1.47-1.12,1.75,1.81c3.26,3.34,6.72,4.75,12.54,5.06,3.87.19,3.92.22,5.11,1.25,1.58,1.34,2.39,2.87,3.69,7.06,1.06,3.5,1.72,5.15,2,5.15.12,0,.12-.22,0-.47s-.34-2.12-.6-4.18c-.72-6-1.85-8.59-4.59-10.62-.63-.47-3.28-2.07-5.88-3.5-4.78-2.69-9.68-6.19-8-5.69a21.72,21.72,0,0,0,3.6.22c4.44,0,8.3-1.56,4.18-1.65-2.71-.1-8-2-11.62-4.22-3.28-2-6.16-4.59-10.11-9.06-3.66-4.09-7.12-6-11.33-6.28C461.76,679.91,461.52,679.94,462.45,680.19Z" transform="translate(-4.11 -0.15)"/><path class="cls-2" d="M459.62,696.28a16.83,16.83,0,0,0-2.74,1.12c-1.64.84-5,4.41-6.51,6.9a101.87,101.87,0,0,0-8.05,18.15c-.92,3.09-.89,6.69,0,8.71,1.73,3.82,5.91,5.91,10.9,5.44,2.08-.19,8.48-2.19,8.48-2.66a5.37,5.37,0,0,0-1-1.31,21.71,21.71,0,0,1-4.27-6.93,9.83,9.83,0,0,1-.69-4.69l.09-2.56.66,2c1.73,5.16,5.1,8.66,9.89,10.12a30,30,0,0,0,4.75.81,35.13,35.13,0,0,1,5.34.94c8.65,2.56,14.07,3.56,17.81,3.41,2.57-.13,3.75-.75,1.7-.85-5.82-.34-11.47-3.31-14.09-7.43a4.68,4.68,0,0,1-.72-1.37,10.83,10.83,0,0,1,1.5,1A15.78,15.78,0,0,0,500,728.29l.6-.34-.57-1.22c-1.18-2.53-3.32-4.15-8.22-6.25-3.69-1.59-5.1-2.5-6.92-4.49s-2.39-2.88-5.47-8.31c-.93-1.63-2.22-3.69-2.89-4.6-1.18-1.59-4.09-4.46-4.49-4.46-.12,0,.11.84.49,1.84a21.5,21.5,0,0,1,1.26,5.78c0,.41-.49-.31-1.21-1.78-2-4.12-4.67-6.84-7.92-8.06A6.83,6.83,0,0,0,459.62,696.28Z" transform="translate(-4.11 -0.15)"/><path class="cls-2" d="M552.44,696.56a15.12,15.12,0,0,0-7.29,7.84l-1,2.18v-1.4a18.52,18.52,0,0,1,.87-4.06c.46-1.44.8-2.66.78-2.69-.18-.19-3.15,2.72-4.27,4.19-.69.9-2.39,3.65-3.78,6.09-2.88,5.09-5.33,8.21-7.49,9.52a44.24,44.24,0,0,1-4.53,2.25,21.07,21.07,0,0,0-6,3.38,11.67,11.67,0,0,0-2.42,3.71c0,.5,2,1.53,4.18,2.16a17,17,0,0,0,9-.34,18.92,18.92,0,0,0,5.36-2.91c1-.91.78-.12-.32,1.38-2.68,3.65-7.09,6-12.6,6.83l-2.59.38,1.3.41c2.51.75,9.63-.29,17-2.47a54.65,54.65,0,0,1,6.91-1.6c5.11-.62,6.66-1,8.65-2.06a16,16,0,0,0,7.24-9.43c.78-2.93,1.15.94.4,4.16a18.91,18.91,0,0,1-4.09,7.65L556,733.85l1.82.78c8.3,3.6,15.36,2,17.84-4.09.87-2.06.64-5.87-.57-9.43-2.71-8.15-7.1-16.87-10.38-20.68C561.18,696.37,556.31,694.84,552.44,696.56Z" transform="translate(-4.11 -0.15)"/><path class="cls-1" d="M506.06,735.16a9.58,9.58,0,0,0-2,1.63,19.62,19.62,0,0,0-3,6.24,4.29,4.29,0,0,1-.38,1.35,9.44,9.44,0,0,0-.49,1.5c-.29,1.34-2.68,7.81-4.15,11.31-1.15,2.71-1.3,3.37-1.33,5.31a7.51,7.51,0,0,0,.84,4,6.12,6.12,0,0,0,4.5,3.62c2.56.69,5.1-.81,6.66-4,1.35-2.75,1.49-4.19,1.21-12.43-.15-4.12-.26-10.12-.26-13.37,0-3.69-.12-5.84-.29-5.84A6.74,6.74,0,0,0,506.06,735.16Z" transform="translate(-4.11 -0.15)"/><path class="cls-1" d="M510.18,740.69c0,3.41-.17,7.81-.31,9.78-.46,5.28-.41,10.37.14,12.59.92,3.9,2.51,6.15,4.84,7a3.76,3.76,0,0,0,3.18,0,6.2,6.2,0,0,0,4.15-3.31c.69-1.22.77-1.75.77-4.06a9,9,0,0,0-1-5,117.15,117.15,0,0,1-4.41-12c-.26-1-.61-2.12-.72-2.5a7.57,7.57,0,0,1-.29-.9,20,20,0,0,0-2.08-4.5c-.83-1.35-3.14-3.25-3.89-3.25C510.3,734.54,510.18,736.16,510.18,740.69Z" transform="translate(-4.11 -0.15)"/><path class="cls-1" d="M495.14,740.54a109.14,109.14,0,0,1-12,3.68c-10.63,2.53-20.32,1.91-27.35-1.75a5,5,0,0,0-1.53-.62c-.23.25,3.57,3.09,5.5,4.06,4.33,2.25,9.29,3.09,15.34,2.65a44.49,44.49,0,0,0,20.38-7.27C497.82,739.66,497.76,739.54,495.14,740.54Z" transform="translate(-4.11 -0.15)"/><path class="cls-1" d="M521.11,740.44A47.26,47.26,0,0,0,528,744.5a39.78,39.78,0,0,0,20.67,4.06,26,26,0,0,0,10.15-3c1.58-.87,5-3.53,4.87-3.71a18,18,0,0,0-2.39,1,45.77,45.77,0,0,1-5.16,1.93c-2.74.81-3.2.88-9.23.88-5.79,0-6.69-.1-10.2-.88a119.46,119.46,0,0,1-14.16-4.21C520.56,739.69,520.22,739.69,521.11,740.44Z" transform="translate(-4.11 -0.15)"/><path class="cls-1" d="M494.39,745.16c-1,.65-3.61,2.28-5.85,3.59-16,9.43-29.44,12.37-41.46,9.12-3.43-.93-3-.34.87,1.31a30.92,30.92,0,0,0,17.26,2.1c9.55-1.47,18.94-6.06,27.48-13.53C497.07,743.91,497.76,742.88,494.39,745.16Z" transform="translate(-4.11 -0.15)"/><path class="cls-1" d="M522.09,744.85c2.59,3,8.56,7.52,14.13,10.65,12.3,6.9,25.16,8.06,34.88,3.12a23,23,0,0,0,2.45-1.34,15.17,15.17,0,0,0-2.66.59c-11.47,3.06-23.61.72-38.57-7.4-2.45-1.31-5.65-3.19-7.09-4.12s-2.91-1.91-3.31-2.13C521.28,743.85,521.28,743.91,522.09,744.85Z" transform="translate(-4.11 -0.15)"/><path class="cls-1" d="M508.45,769.9a118.72,118.72,0,0,0-.37,17.27c.37,6.78.61,9.53.89,9.53s.87-8.22.87-15.34-.46-15.27-.87-15.27A19.36,19.36,0,0,0,508.45,769.9Z" transform="translate(-4.11 -0.15)"/><path class="cls-1" d="M493.06,772.61c3.81,4.31,5.39,8.75,6.72,18.68a26.06,26.06,0,0,0,1,5.1c.43,0,0-10.81-.55-13.09a23,23,0,0,0-4.15-8.84c-1.35-1.63-3.83-3.69-4.38-3.69C491.5,770.77,492.14,771.61,493.06,772.61Z" transform="translate(-4.11 -0.15)"/><path class="cls-1" d="M523.3,771.74c-3.11,2.22-5.71,6.56-6.86,11.37-.66,2.87-1.07,10.87-.63,12.65.26,1.06.28,1,.49-.94a93.79,93.79,0,0,1,2.3-13c1.5-4.69,2.34-6.28,4.9-9.15C525.43,770.59,525.35,770.27,523.3,771.74Z" transform="translate(-4.11 -0.15)"/><path class="cls-1" d="M483.89,773.18c0,.12.41.53.9.87,1.27.91,3.6,4.19,4.73,6.66,1.26,2.84,2,5.93,2.76,11.18.87,6.24,1.18,6.24,1,0-.12-4.28-.26-5.78-.75-7.66a18.27,18.27,0,0,0-4.06-7.77C487,774.8,483.89,772.61,483.89,773.18Z" transform="translate(-4.11 -0.15)"/><path class="cls-1" d="M533.79,773.68c-2.94,1.62-5.76,5.49-7.15,9.8-.69,2.22-.77,2.94-.86,7.91-.06,3.28,0,5.21.17,4.84s.52-2.59.9-5c1.18-8.12,2.82-12.31,6.28-16,1.15-1.22,2-2.25,2-2.25A10.85,10.85,0,0,0,533.79,773.68Z" transform="translate(-4.11 -0.15)"/><path class="cls-3" d="M469.68,793.17c-.31.31-.23,7.06.09,7.59s2.36.65,2.77.25-.06-7.47-.58-7.81A3.05,3.05,0,0,0,469.68,793.17Z" transform="translate(-4.11 -0.15)"/><path class="cls-3" d="M545.5,793.14c-.29.31-.23,7.06.06,7.59a3.15,3.15,0,0,0,2.82.22c.26-.29.17-3.91-.14-6.28-.21-1.56-.21-1.56-1.36-1.66A2.49,2.49,0,0,0,545.5,793.14Z" transform="translate(-4.11 -0.15)"/><path class="cls-3" d="M474.12,796.2c-.23.28-.34,1.9-.34,4.59,0,3.9.05,4.22.63,4.72a2.72,2.72,0,0,0,2.91.21c.58-.34.61-.5.4-4.59a30.58,30.58,0,0,0-.48-4.81C476.89,795.64,474.64,795.54,474.12,796.2Z" transform="translate(-4.11 -0.15)"/><path class="cls-3" d="M540.68,796.07c-.52.35-.77,6.25-.37,8.28.23,1.09.37,1.28,1.3,1.53,1.44.41,2.42.06,2.65-.9.29-1.22-.38-8.69-.78-9A3.82,3.82,0,0,0,540.68,796.07Z" transform="translate(-4.11 -0.15)"/><path class="cls-3" d="M479.51,798c-.95,1-.95,9.68,0,10.71.58.66,3.49.47,3.89-.21s-.08-10.06-.43-10.47a4.68,4.68,0,0,0-1.61-.37C480.35,797.6,479.83,797.7,479.51,798Z" transform="translate(-4.11 -0.15)"/><path class="cls-3" d="M535,798.07c-.49.41-.54.85-.54,5.34,0,5.69,0,5.78,2.65,5.78,2.19,0,2.28-.31,1.84-6.15-.26-3.62-.46-4.72-.8-5A3.41,3.41,0,0,0,535,798.07Z" transform="translate(-4.11 -0.15)"/><path class="cls-3" d="M486.29,799.1c-1.27.28-1.39.81-1.36,6.41,0,3.59.12,5.37.35,5.62a4.44,4.44,0,0,0,2,.5c2.68.22,2.76,0,2.53-5.69-.26-6.31-.26-6.34-1.55-6.74a10.22,10.22,0,0,0-1.22-.28A6.54,6.54,0,0,1,486.29,799.1Z" transform="translate(-4.11 -0.15)"/><path class="cls-3" d="M506.73,799.26a1.78,1.78,0,0,0-.78,1c-.06.37-.18,3.84-.26,7.71-.12,5.22-.06,7.22.2,7.56a3.65,3.65,0,0,0,1.67.88c1.7.5,3.66-.13,4.21-1.28.26-.57.37-2.81.37-7.84,0-6.72,0-7.09-.6-7.66S507.73,798.7,506.73,799.26Z" transform="translate(-4.11 -0.15)"/><path class="cls-3" d="M529.53,799.1c-1.27.28-1.39.81-1.39,6.25,0,5,0,5.15.7,5.75.86.78,3.22.81,3.92.06.43-.47.46-1.06.28-5.53-.08-2.78-.26-5.28-.31-5.56a3.63,3.63,0,0,0-2.42-1.15A7.49,7.49,0,0,1,529.53,799.1Z" transform="translate(-4.11 -0.15)"/><path class="cls-3" d="M492.89,799.85a3.51,3.51,0,0,0-1.15.44c-.27.28-.44,10-.24,11.28.24,1.15,1.1,1.68,2.92,1.68s2.45-.75,2.42-2.9c0-2.56-.43-9.9-.58-10.06A6.29,6.29,0,0,0,492.89,799.85Z" transform="translate(-4.11 -0.15)"/><path class="cls-3" d="M499.09,800a1.75,1.75,0,0,0-.81.94c-.4,1.21-.32,11.68.11,12.62.72,1.56,3.69,1.93,5.14.65l.63-.56-.26-6.44c-.17-4.34-.37-6.56-.61-6.8C502.92,800,500,799.73,499.09,800Z" transform="translate(-4.11 -0.15)"/><path class="cls-3" d="M514.71,800.42c-.69.59-.69.65-.69,6.9s0,6.31.66,6.87a4.23,4.23,0,0,0,4,.56c1.53-.56,1.61-1.25,1.21-8.37-.34-5.65-.34-5.78-1.07-6.15A4.37,4.37,0,0,0,514.71,800.42Z" transform="translate(-4.11 -0.15)"/><path class="cls-3" d="M521.77,800.26c-.52.4-.55.84-.52,6.12,0,6.56,0,6.59,2.51,6.81,1.85.16,2.68-.25,2.88-1.41a53.91,53.91,0,0,0-.14-6c-.23-4-.43-5.25-.75-5.56C525.15,799.66,522.46,799.73,521.77,800.26Z" transform="translate(-4.11 -0.15)"/><path class="cls-3" d="M469.25,808.32a16.74,16.74,0,0,0-.49,3.59c-.17,3-.17,3.19.43,3.53a2.45,2.45,0,0,0,1.47.15c1-.24,1.21-.9,1.24-4.46,0-2-.08-2.66-.4-2.87A2.06,2.06,0,0,0,469.25,808.32Z" transform="translate(-4.11 -0.15)"/><path class="cls-3" d="M546.48,808.22c-.29.19-.38,1-.35,3.16a25.93,25.93,0,0,0,.17,3.46c.24.72,1.65,1.07,2.48.6.61-.38.61-.5.44-3.38a19.51,19.51,0,0,0-.49-3.55C548.44,807.91,547.17,807.75,546.48,808.22Z" transform="translate(-4.11 -0.15)"/><path class="cls-3" d="M473,811.13c-.41.44-.49,6.68-.09,7.84.32.9,1.85,1.34,3.06.84l.8-.31-.23-3.84a25.93,25.93,0,0,0-.46-4.37C475.76,810.66,473.54,810.53,473,811.13Z" transform="translate(-4.11 -0.15)"/><path class="cls-3" d="M541.72,811c-.34.56-.49,4.9-.26,6.59.2,1.43.38,1.78,1,2.12a3.07,3.07,0,0,0,1.85.19l1.06-.22-.17-4.19a32.43,32.43,0,0,0-.38-4.49C544.63,810.66,541.92,810.66,541.72,811Z" transform="translate(-4.11 -0.15)"/><path class="cls-3" d="M478.5,813.25c-.89.41-1,1.25-.92,5.94.09,3.12.2,4.15.52,4.37a3.71,3.71,0,0,0,3.14.25l.78-.44-.09-4.65c-.05-3.31-.2-4.81-.46-5.09A3.38,3.38,0,0,0,478.5,813.25Z" transform="translate(-4.11 -0.15)"/><path class="cls-3" d="M536.76,813.22a1.82,1.82,0,0,0-.8,1.28,37.49,37.49,0,0,0,0,7.34c.15,1.31.29,1.53,1.16,1.91,1.06.5,2.91.31,3.14-.31.35-1-.06-9.75-.46-10A5.66,5.66,0,0,0,536.76,813.22Z" transform="translate(-4.11 -0.15)"/><path class="cls-3" d="M483.89,816c-.72.53-1,8.06-.4,11.19.26,1.4,4,1.71,4.81.37.32-.56,0-10.59-.37-11.21S484.5,815.59,483.89,816Z" transform="translate(-4.11 -0.15)"/><path class="cls-3" d="M530.19,816.16c-.66.53-.92,4.62-.6,8.77l.2,2.75,1,.47c1.36.63,3.41.31,3.84-.59a14.07,14.07,0,0,0,.14-4.28c-.29-5.72-.46-6.87-1.06-7.22A4.82,4.82,0,0,0,530.19,816.16Z" transform="translate(-4.11 -0.15)"/><path class="cls-3" d="M491.19,817.34c-1.24.41-1.39,1-1.39,6.53,0,6.06.15,6.65,1.59,7.19a4.94,4.94,0,0,0,3.95-.35c.4-.37.43-1.12.23-6.21a50.87,50.87,0,0,0-.46-6.31,2.69,2.69,0,0,0-1.36-.88A3.21,3.21,0,0,0,491.19,817.34Z" transform="translate(-4.11 -0.15)"/><path class="cls-3" d="M523.76,817.34a1.53,1.53,0,0,0-1.15,1.16,74.4,74.4,0,0,0,0,11.37c.26,1,1.76,1.62,3.54,1.41,2.25-.25,2.22-.19,2-6.78a46.85,46.85,0,0,0-.46-6.31,2.65,2.65,0,0,0-1.35-.88A3.23,3.23,0,0,0,523.76,817.34Z" transform="translate(-4.11 -0.15)"/><path class="cls-3" d="M498.62,819.91c-1.38.53-1.52,1.4-1.41,8.59.09,5.87.12,6,.75,6.62,1.47,1.31,5.16,1.06,5.85-.38.35-.65.18-8.24-.26-12.59-.2-1.81-.23-1.87-1.21-2.24a5.93,5.93,0,0,0-1.87-.38A6,6,0,0,0,498.62,819.91Z" transform="translate(-4.11 -0.15)"/><path class="cls-3" d="M515.4,819.87a1.48,1.48,0,0,0-1.12,1.32c-.35,1.46-.23,12.4.11,13.33.23.66.64.91,1.76,1.22a6.19,6.19,0,0,0,4-.28c.72-.47.86-2.56.6-8.09-.17-3-.34-5.84-.43-6.25C520.07,819.78,517.54,819.13,515.4,819.87Z" transform="translate(-4.11 -0.15)"/><path class="cls-3" d="M506.58,821a2,2,0,0,0-1.27,1.28c-.08.44-.08,4,0,8,.2,8.56.09,8.34,3.35,8.59,2.19.16,3.6-.25,3.92-1.12.11-.31.08-3.94,0-8.12-.23-8.34-.2-8.22-2.08-8.81A5,5,0,0,0,506.58,821Z" transform="translate(-4.11 -0.15)"/><path class="cls-1" d="M460,842.18c6.69,2.4,11.87,5.49,20.32,12,6.83,5.28,12.6,8.4,18.8,10.15a32.46,32.46,0,0,0,11.84,1.31c10.06-.37,17.7-3.81,30.19-13.52a62.09,62.09,0,0,1,19.45-10.62c2.17-.72,2.17-.72.87-.72-3.17,0-9.05,1.75-12.94,3.87a74.49,74.49,0,0,0-6.29,4.13c-6.28,4.43-6.92,4.87-9.74,6.59-4.33,2.68-10.41,5.24-13.67,5.81a43.71,43.71,0,0,1-9.68.9c-11.3-.06-18.31-2.93-33.41-13.8-5.77-4.13-9.95-6.09-15.14-7.06C455.93,840.3,455.73,840.65,460,842.18Z" transform="translate(-4.11 -0.15)"/></g><g id="Tribal"><path class="cls-1" d="M302.8,489a278.6,278.6,0,0,1,53.52,27.77c14,9.35,34.25,25,39.38,30.52,2.64,2.75,4.72,3.57,9.16,3.57,6.23,0,14.55-2.34,14.55-4.12,0-3.58-26.76-22.41-47.14-33.27-22-11.69-52.83-23.92-70.16-27.91C287.27,482.16,287.55,483.26,302.8,489Z" transform="translate(-4.11 -0.15)"/><path class="cls-1" d="M188,488.21c.56.55,7.07,1.65,14.56,2.34,44,4.4,93.6,25.43,130.9,55.4,5.68,4.54,18.44,16.23,28.28,25.85l17.75,17.6,14.28,1c9.43.55,14.42.27,15.12-.69,1.24-2.06-10-15-25.66-29.69-38.82-36.71-84.3-59.12-139.07-68.88C232.22,488.9,186.61,486.56,188,488.21Z" transform="translate(-4.11 -0.15)"/><path class="cls-1" d="M720.3,489.86c-21.35,4.54-56.29,17.6-77.64,29-18.31,9.76-43,27.08-43,30.11,0,1.51,9.85,4.67,14.28,4.67,3.75,0,6.94-1.78,15.67-9.07a406.82,406.82,0,0,1,47-32.31c10.81-6.19,34.66-16.64,47.83-21C736,487.52,734.17,486.84,720.3,489.86Z" transform="translate(-4.11 -0.15)"/><path class="cls-1" d="M786.86,495.5c-21.08,2.2-51.16,9.48-69.33,16.5-14.14,5.49-38.41,17.87-50.61,25.84-21.21,13.75-61.42,51-58.24,54,.56.55,7.49.83,15.53.69l14.7-.14,13.31-12.92c38.55-37.4,70.3-57.61,112.32-71.22,16.91-5.5,41.87-10.86,51.86-11.13a64,64,0,0,0,10-1.24C830.54,494.81,796.29,494.54,786.86,495.5Z" transform="translate(-4.11 -0.15)"/><path class="cls-1" d="M402.78,502c0,.41,2.35,1.92,5.26,3.44,10.82,5.5,25.1,24.33,25.24,33.13,0,5.77-5.13,12.37-12.2,15.4s-22.33,4.12-29.95,2.06c-3.61-1-3.33-.41,3.46,6.19,4.16,4,10.27,10.31,13.59,14,5.69,6.19,6.38,6.6,11.37,5.91,12.21-1.65,28.57-12.78,34-23.37l2.08-3.85,4.86,2.75,4.85,2.89,4.85-10.18c2.64-5.63,4.72-10.86,4.72-11.68,0-1.93-12.2-11-25.1-18.43C434.94,511.58,402.78,499.07,402.78,502Z" transform="translate(-4.11 -0.15)"/><path class="cls-1" d="M610.76,505c-1.1.42-6.1,2.07-11.09,3.58a172.93,172.93,0,0,0-42.57,20.62c-7.07,4.68-12.89,8.94-12.89,9.49,0,1.51,6.1,16.77,7.9,19.79,1.53,2.75,1.67,2.75,6.1.14,4-2.34,4.58-2.34,5.69-.41,6.51,11.69,18.85,21.58,31.2,25.16l7.62,2.2L615.2,573c6.8-6.88,13-12.51,13.73-12.51a1.14,1.14,0,0,0,1.25-1.1c0-.55-6.1-1-13.45-1-11.23,0-14.7-.55-19.83-3-6.8-3.3-11.09-9.07-11.09-14.71,0-8.39,11.23-23.24,24.26-31.9C616.31,504.57,616.59,503.2,610.76,505Z" transform="translate(-4.11 -0.15)"/><path class="cls-1" d="M485.42,510.77c-.42,2.48-1,8.11-1.53,12.51-.69,8.11-6.65,27-11.09,35.47-1.39,2.62-4.72,7.84-7.35,11.83l-4.85,7.28,6.79,7.84c3.61,4.4,6.93,8.25,7.21,8.66,1.66,2.2,20.11-26,24.54-37.67l2.64-6.6,3.88,4.54,3.88,4.67,3.19-3.85c4.3-5.08,5.83-4.67,7.91,2.07,3.32,11.27,18.71,36.84,22.18,36.84.69,0,4.16-3.44,7.77-7.7,6.65-7.56,6.65-7.7,4.16-11.27-10.4-15.81-17.89-37.95-19.55-57.74-.56-6.19-1.53-11.28-2.08-11.28-.7,0-5.83,4.26-11.51,9.63s-10.82,9.62-11.37,9.62-5.69-4.4-11.23-9.62-10.82-9.63-11.65-9.63S485.83,508.43,485.42,510.77Z" transform="translate(-4.11 -0.15)"/><path class="cls-1" d="M245.4,513.23c-51.17,5.09-94.57,22.55-122.58,49.22-24.68,23.51-39,50.46-46.45,87.72-1.25,5.77-2.22,13.88-2.08,17.87l.14,7.29,2.5-11.69c3.32-15.4,6-22.82,13.58-38.36,25.38-51.83,83.2-85.38,147.26-85.65A242.74,242.74,0,0,1,316.67,553a99.66,99.66,0,0,0,11.65,3.44c6.1,0-30.37-27.08-48.26-35.74C265.78,513.64,258.29,512,245.4,513.23Z" transform="translate(-4.11 -0.15)"/><path class="cls-1" d="M740,525.33c-17.19,8.39-52,32.45-49.91,34.65.41.27,5.68-1,11.64-2.75,34.39-10.73,77.24-14.85,103.72-9.9,39,7.42,67.39,21.86,93.6,47.43,19.55,19.11,33.55,46.33,40.9,79.88l1.94,8.93-.69-10.31q-3.54-57.54-42.29-99.81c-26.49-28.73-80.15-51.28-130.76-54.72l-12.48-1Z" transform="translate(-4.11 -0.15)"/><path class="cls-1" d="M206.3,554.34c-13.87,3-32.31,8.8-42.71,13.61-29.12,13.34-59.63,41.11-72.24,65.72-4.72,9.35-3.33,9.9,2.22.82,6.93-11.27,23.29-26.12,36.05-32.58,13.45-7,35.77-14.44,50.33-16.64,15.67-2.61,44.93-1,63.37,3.3,40.49,9.35,78.62,27.09,124.79,57.61,23.6,15.7,39.3,27.22,53.47,39.4l.73-9.54c-27.26-28.26-35.34-35.18-58.91-50.76-7.77-5.22-23.58-14.43-35.22-20.76s-20.94-11.69-20.66-12,10.4,3.16,22.32,7.84C374.07,617.17,389.19,621,410,621c15-.14,35.77-3.85,35.77-6.46,0-.42-2.91-4.68-6.38-9.63L433,596l-10,1c-20.94,1.92-48.39-3.57-75.71-15.12-32.58-13.89-62.12-23.38-86.11-27.5C246.92,551.87,217.94,551.87,206.3,554.34Z" transform="translate(-4.11 -0.15)"/><path class="cls-1" d="M764.13,558.6a484.26,484.26,0,0,0-94.84,27.64c-22.46,9.07-42.84,13.06-65.44,12.51l-18.31-.42-6.38,8.12c-3.6,4.53-6.24,8.93-6,9.62,1.67,4.95,40.49,8.11,60.32,5.09,10.68-1.65,29.26-7.57,60.45-19,9-3.3,16.78-5.77,17.06-5.36s-9.71,5.78-22.33,12.38c-40.07,20.62-63.64,37.39-89,63-1.31,1.33-2.67,2.74-4.05,4.19l.69,9.45c10.49-8.51,22.48-16.94,40.24-28.62,60.73-39.87,109.12-59.95,158.76-65.86,31.06-3.71,56.85,1,88.75,15.95,13,6.19,29.11,20.21,37.43,32.58,7.35,10.87,8.32,11.69,5.55,5.23-4.72-11.55-20.66-32.72-32.17-42.76-23.43-20.21-42-30.25-73.21-39.32-11.93-3.44-16.78-4.12-34-4.54C776.61,558.19,766.08,558.19,764.13,558.6Z" transform="translate(-4.11 -0.15)"/><path class="cls-1" d="M499.28,571.25a94.86,94.86,0,0,1-5.82,10.59L488.61,590l1.57,3.49c14.85-4.17,38,.07,38,.07l1.51-2.88-3.88-6.46a78.51,78.51,0,0,1-5.55-10.31c-1.8-4.26-3.19-4.67-4.3-1.37-.42,1.37-2.36,4.26-4.16,6.6l-3.33,4.12-3.05-6.6C501.78,569.05,500.39,567.81,499.28,571.25Z" transform="translate(-4.11 -0.15)"/><path class="cls-1" d="M436,627.19c-1.53.42-5.27,1.1-8.32,1.52s-7.63,1-10,1.37l-4.57.69,2.63,3.71c.81,1.2,4.46,6.94,9.42,14.87C433.41,629.52,434.86,627.47,436,627.19Z" transform="translate(-4.11 -0.15)"/><path class="cls-1" d="M567.73,610.32c18.53-26.47,16.62-23,10.82-26.57a70.45,70.45,0,0,1-8.6-5.91L566.76,575l-3.33,4.12c-1.66,2.2-8,10.32-14,17.88l-1.55,1.94C562.26,602.69,566.77,611.69,567.73,610.32Z" transform="translate(-4.11 -0.15)"/><path class="cls-1" d="M442,579.49c-4.3,2.75-7.91,5.63-8,6.32s6.24,10.73,14,22.41l1.68,2.54c7.2-7.8,19.52-11.48,19.52-11.48s-2.48-3.3-3.73-4.94c-6.79-9.08-12.62-17.19-13-18.29C451.4,573.58,451,573.71,442,579.49Z" transform="translate(-4.11 -0.15)"/><path class="cls-1" d="M592.39,650.11a81.11,81.11,0,0,1,4.52-7.09c1.76-2.51,4.45-6.22,5.74-8.21l2.6-3.81-4.54-.59c-1.44-.23-8.17-1.45-17.42-3.22C592.42,646.63,593,649.09,592.39,650.11Z" transform="translate(-4.11 -0.15)"/></g><g id="Mano"><path class="cls-1" d="M625.48,53.57c3.39.72,8.43,3.31,10.53,5.52a22.36,22.36,0,0,1,5.74,12.2c.3,2,.3,2.06-.55,1.44s-.85-.58,0,.38.9,1.4.45,4.81c-3.55,26.36-3.74,27.28-6.14,34.24-1.1,3.31-2.44,7.49-2.94,9.37-.75,2.73-1.1,3.31-1.85,3.21-.5,0-1.74-.24-2.79-.43a23.3,23.3,0,0,0-5.24.29l-3.34.62-5-2.16c-4.64-2-13.43-5.14-14.33-5.14-.74,0-.39.87.45,1.11A108.83,108.83,0,0,1,614,124.5l5.63,2.69,2.6-.53c3-.67,9.33-1.29,9.33-1,0,.15-.65,2.41-1.45,5-2.24,7.49-3.84,13.25-6,22-2.4,9.46-4.05,14.12-7.24,20.55l-2.3,4.71-1.44-.72c-1.75-.87-4.24-.87-8.23,0l-3,.62,5.84-.05a31.26,31.26,0,0,1,6.14.24c.3.29-.55,2.55-5.39,14.56-.85,2.11-3.4,9.22-5.69,15.8s-4.44,12.15-4.79,12.39c-1,.62-6.54.43-8.93-.39a21.65,21.65,0,0,1-5.84-3.69,48.13,48.13,0,0,0-7.88-5.14c-2.4-1.2-5.69-3-7.29-4-2.74-1.73-2.94-1.92-2.64-3.36.15-.82.45-4.32.6-7.73.3-5.91.2-6.53-1.25-11.91l-1.55-5.72,2.55-6.77c1.4-3.75,3-8.16,3.64-9.85,1-2.78,1.2-3,1.85-2.2,1.09,1.29,3.64,2.11,6.58,2.11a27.31,27.31,0,0,1,10.48,2.45l2.1,1-1.25-1a21.13,21.13,0,0,0-10.23-3.89c-3.54-.34-6-1.25-7.24-2.6-.49-.67-.29-1.77,1.45-6.91,1.15-3.36,3.49-9,5.19-12.58s4.59-10,6.39-14.36,3.44-8,3.79-8.07c1.1-.39,5.79,2,9.08,4.65,6.39,5.1,10.63,6.78,15,5.82,1.65-.34,1.6-.39-1.25-.63-4.29-.38-6.78-1.53-12.07-5.47-4.59-3.51-8.78-6-10-6-.45,0-.55-.33-.3-1.1.5-1.54.5-1.54,2.64-.15,3.3,2.21,5.64,2.79,10.23,2.45,3-.24,4.59-.14,6.24.43a21.4,21.4,0,0,0,7,.73h4.79l-5-1.3c-4.4-1.11-5.84-1.25-12-1.15-7.78.09-9.43-.24-11.43-2.26l-1.39-1.39,1-3.08c.55-1.68,2-6.82,3.1-11.43,2.39-9.7,4.54-16.42,6.53-20.17,1.2-2.4,3.25-7.2,5.64-13.54,1-2.65,4.54-6,8.23-7.83A19,19,0,0,1,625.48,53.57Zm-46.1,104c.45,1.1,4,2.45,8.28,3.12,5.39.81,6.94,1.39,9.73,3.79a17.67,17.67,0,0,0,11.48,4.66c1.89.1,2.94,0,2.24-.1-5-.86-7.48-2.06-13-6.19-3.64-2.79-5.49-3.51-10.33-4a25.67,25.67,0,0,1-6.49-1.4C579.28,156.35,578.88,156.39,579.38,157.55Z" transform="translate(-4.11 -0.15)"/><path class="cls-1" d="M420.76,79.89c6.14,2.45,9.53,6.91,11.68,15.22,2.69,10.23,4.29,19.69,6.53,38.18,1.1,9.13,3.79,24,7.49,41.07A137.74,137.74,0,0,1,449.9,201c.4,9.89-.1,20.6-.95,21.13-.6.34,1.25,6.25,2.1,6.78a7.71,7.71,0,0,0,2.94.43,4.72,4.72,0,0,1,2.9.67,1.64,1.64,0,0,0,1.54.43c1.5-.38,6.09.29,7.14,1.06,1.24.86,2.69,9.32,3.14,18.49l.35,7.44-2.54-2.25a15.29,15.29,0,0,0-3.95-2.55,5.84,5.84,0,0,1-2.34-1.1c-.6-.53-.8-.58-.55-.15s-.05.63-2.2.43a8.25,8.25,0,0,0-2.54,0c0,.43,4.34,2.06,5.64,2.06,1.69,0,3.94,1.11,6.43,3.08,1.55,1.2,1.9,1.82,1.9,3.21,0,1.54-.15,1.78-1.4,2-1.84.34-5.44-.34-11-2.11-4.3-1.4-5.09-1.49-9-1.25a26.52,26.52,0,0,0-5.53.77c-1,.33-.45.38,2,.19a42.09,42.09,0,0,1,15.92,2.35,20.07,20.07,0,0,0,6.49,1.54l2.74.1.3,3.79c.15,2.11.3,3.89.25,3.89-.2.29-11.33,4.47-12.53,4.71-.84.19-5,.38-9.23.48-7.23.14-8,.24-12.47,1.73-2.59.86-5.79,2.06-7.09,2.68a37.44,37.44,0,0,1-6.13,2.12,29.3,29.3,0,0,0-9.38,3.94c-1.5,1.05-5.29,5.71-5.44,6.72a19.92,19.92,0,0,1-.4-3.94c-.5-6.1-.55-19.06-.15-31.74l.3-10.33,4.94-1.1c3.69-.87,6.78-2.07,12.27-4.66,9.28-4.52,6.09-4-5.54.81-3.09,1.3-9.18,2.84-11.17,2.84-.9,0-.75-1.68.9-13a137.36,137.36,0,0,0,.45-26.9c-.2-2.78-.35-5.09-.3-5.13s1.44-.49,3-.92a66.53,66.53,0,0,1,11.23-1.1c8.58-.34,9.38-.53,13.12-3.08a24.69,24.69,0,0,1,3.74-1.82c2.85-1.06,2.3-1.15-1.35-.24a18.91,18.91,0,0,0-4.69,2.06c-2,1.35-2,1.35-12,1.59-9.33.24-10.18.34-11.83,1.34l-1.84,1.06-.3-1.06a10.31,10.31,0,0,1-.3-1.82c0-1,2.24-2.21,4.94-2.59a34.09,34.09,0,0,0,6-2c2.09-1,5.38-2.21,7.33-2.84a21.35,21.35,0,0,0,4.74-1.87c1.5-1,1.25-1-2.2.19a17.71,17.71,0,0,1-4.09,1,10.38,10.38,0,0,0-3.14.77A43.53,43.53,0,0,1,410.78,192a16.07,16.07,0,0,0-3.29.58c-.7.24-.95-.63-1.85-6.1a124.31,124.31,0,0,1-1.34-13.11c-.3-5.82-1.3-15.9-2-20-.3-2,2.1-2.84,7-2.5,3.85.24,4.05.19,7.44-1.59s3.74-1.82,9.88-2.11a51.13,51.13,0,0,0,6.68-.62c.15-.15-2.84-.24-6.63-.2-6.74.1-7,.15-10.43,1.73-3.59,1.64-7.28,2.12-8.33,1.11s-3.35-.67-4.59.53l-1.2,1.15-.75-4.85c-.45-2.69-1-7-1.35-9.66s-.74-6-1-7.44c-.6-3.6-.6-29.73,0-33.62.84-5.57,1.84-7.92,4.54-10.76,3.49-3.7,7.53-5.57,11.87-5.52A16.18,16.18,0,0,1,420.76,79.89Z" transform="translate(-4.11 -0.15)"/><path class="cls-1" d="M544.2,165.23c4.79.87,10.53,3.6,12.83,6.15a34,34,0,0,1,6.38,12.1c2,6.24,2.1,10.18.85,18.49-.6,3.84-1.25,9.42-1.4,12.44l-.3,5.43-1.79-.29c-1-.14-3.5-.53-5.54-.82s-7.78-1.15-12.72-1.92a213.77,213.77,0,0,0-26.65-2.35h-2.19l.25-6.63a93.11,93.11,0,0,0-.1-10.18c-.25-2.83-.1-4.85.84-9.56a34.87,34.87,0,0,0,1-6.48c-.3-.82-2.24,3.6-2.34,5.23l0,1.44-.45-1.68a6.69,6.69,0,0,1,.4-4.08c1.59-4.8,3-6.87,6.18-9,1.65-1.1,4.2-3,5.69-4.27,3.29-2.74,4.69-3.46,8.14-4.18S539.51,164.41,544.2,165.23Z" transform="translate(-4.11 -0.15)"/><path class="cls-1" d="M495.1,167.2c.55.14,1.85.48,2.9.72,1.4.38,3,1.59,6.29,4.75,5.24,5.05,7,8.55,7,13.6,0,1.63.35,6.43.75,10.66.8,8.55,1,17.24.3,16.86a130.48,130.48,0,0,0-14-2.21c-1.75-.05-8,1.63-10.33,2.78-3.69,1.83-6.49,5.62-7.93,10.9-1.8,6.34.15,14,5.34,21.47,2.74,3.94,6.28,7.21,11.67,10.71,2.4,1.59,6.14,4.23,8.28,5.86s4.49,3.36,5.19,3.8c1.5,1,2,3.07,1.3,5.95-.25,1.2-.75,5.29-1.05,9.13-.6,7.2-1.39,11.24-1.45,7.44a54.34,54.34,0,0,0-.84-6.15c-.95-5-2-5.71-1.35-1,.45,3.65.5,12.83.05,14.36-.6,2-1.75,4.28-2.5,4.85-1.74,1.4-7.43,3-10.67,3-5.79,0-9.68-2.74-12.88-9.13l-1.69-3.26,2.24-3.8c1.25-2.06,2.55-4.51,2.95-5.42.7-1.64.85-1.73,5.09-2.55a74.29,74.29,0,0,1,9.63-.86c6.28-.05,8.43-.58,4.69-1.2-4.15-.67-15.17-.39-16.57.43a11.49,11.49,0,0,1-2.59.62c-2.25.34-3.05,1-1.85,1.44.65.24.65.58-.25,2.65a43.14,43.14,0,0,1-2,4.41c-1.3,2.5-2.45,6.58-1.85,6.58.25,0,.45.29.45.63,0,1.2,4.24,6.48,6.38,8a16.16,16.16,0,0,0,14,1.83c5.53-2.07,8-4.81,9.28-10.52l.64-3.08,0,2.93c.1,6.25-3,11.24-8.33,13.21-2.24.86-3.89,1.1-7.83,1.1-4.69.05-5.19,0-8.43-1.58-4.39-2.06-10.53-7.59-11.28-10.09a79.07,79.07,0,0,1-1-8.45c-.25-3.7-.8-9.56-1.2-13s-.74-10.32-.74-15.27a93.13,93.13,0,0,0-.25-9.46,60.88,60.88,0,0,1-.7-6.29c-.35-4.52-1.15-8.55-3.2-16.52-1.54-5.81-3-11.77-3.29-13.21a80.64,80.64,0,0,1-1.4-18c.15-3.7.1-4.76-.2-3.6a66,66,0,0,0-.79,7.68c-.3,6.29.35,10.81,2.89,20.85a18.78,18.78,0,0,1,.8,3.93,4.59,4.59,0,0,1-1.75-.09c-1.64-.34-6.73-5.09-8.63-8.07-.5-.82-.95-1.25-.95-1a16,16,0,0,0,1.65,3.12l1.7,2.69-1.85.43a4.65,4.65,0,0,1-3.34-.14l-1.6-.58,1.45-5.19c5.93-21.51,6.63-23.48,10.82-31.84,3.15-6.19,3.5-6.67,8.59-11.57,3.89-3.8,5.83-5.29,7.28-5.72C480.19,167.25,493.26,166.77,495.1,167.2Z" transform="translate(-4.11 -0.15)"/><path class="cls-1" d="M566,207c.3.81,6,4.7,9,6.19a81.18,81.18,0,0,1,6.73,4.76,61.24,61.24,0,0,0,6.59,4.61c2,.81,4.64.72,7.63-.29l2.6-.87-.9,2.5c-1,2.69-1.65,6.63-2.49,14.46a50.69,50.69,0,0,1-1.2,7l-.6,2.07-1.15-1.92c-2.39-4.18-2.79-4.81-3.19-4.95a1.14,1.14,0,0,1-.35-.91c0-1.35-2.64-6.58-4.79-9.51-4.49-6.25-10.33-9.8-16.77-10.23-2.74-.19-3.39-.39-3.19-.91a49,49,0,0,0,.85-6.54,57.47,57.47,0,0,1,.75-6C565.61,206.25,565.81,206.53,566,207Z" transform="translate(-4.11 -0.15)"/><path class="cls-1" d="M501.59,212.83c.55.09,2.25.43,3.74.72,2.85.52,10.83,2.78,15.37,4.32a15.35,15.35,0,0,0,4.09.91,8.33,8.33,0,0,1,2.7.48c1.24.43,1.29.58,1.29,4.66a39.49,39.49,0,0,1-.74,7.35c-.9,3.6-4.59,11.09-6.59,13.3l-1.4,1.54-5.73-.43c-3.15-.24-7.24-.58-9.09-.77l-3.34-.34-4.39-4.13a32.09,32.09,0,0,1-6.14-7.25c-1.54-2.83-1.69-3.46-1.74-7.2,0-3.56.15-4.38,1.34-6.25a23,23,0,0,1,3.85-4.46C497.3,213,499.2,212.3,501.59,212.83Z" transform="translate(-4.11 -0.15)"/><path class="cls-1" d="M492,215.71c-2.34,2.69-4.09,6.87-4.09,9.75,0,2.73,1.75,7.63,3.69,10.47a43.69,43.69,0,0,0,5.29,5.52c3.24,2.74,3.44,3,2.4,3.27s-.85.38,1.09,1.2,3.85,1,10.63,1.1l8.43.19-1.19,1.2c-.65.68-.9,1.16-.65,1.06.8-.29,4.84-4.71,6.78-7.4,5.59-7.63,7.59-15,5.74-20.89-.5-1.63-1-2.21-2-2.45a6.7,6.7,0,0,1-2-.81,12.78,12.78,0,0,0-3.09-1.2l-2.5-.77h3.79c4.19,0,10.73,1,22.41,3.55a58.77,58.77,0,0,0,11.62,1.68h3.94l-.35,2c-.49,2.93-1.54,5.81-3.74,10.23s-2.64,6.53-2,8.88c.4,1.59.45,1.54.5-1,.05-2.16.49-3.45,2.39-7,1.25-2.4,2.75-5.14,3.29-6.2a13.94,13.94,0,0,0,1.25-4.22l.25-2.4,3,.29a37.47,37.47,0,0,1,4.83.86c1.75.48,1.8.58,1.6,2.5a41.41,41.41,0,0,0,.5,7.35c.8,5.61.65,7.34-.9,10.9-1.09,2.49-.55,2.78.7.33,1.85-3.45,2.15-6.05,1.3-11.09-.85-5.24-1-8-.25-8.41.55-.33,2.59.82,4.69,2.6,1.45,1.25,6.09,7.87,7.13,10.18.45,1.06.25,2.16-1.54,7.3-2.35,6.63-3.25,8-8.54,13l-3.49,3.31,4.19-3.55c6.44-5.48,9.63-10.14,10.38-15.18.25-1.87,1.15-2.5,1.15-.82a8.45,8.45,0,0,0,1.6,3c.85,1.25,1.94,2.83,2.44,3.51.9,1.29,2.75,5,7.78,15.56,4.3,9.07,5.79,11.57,12.53,21.37,8.83,12.77,9.23,13.54,9.48,18.25.15,3-.15,5-1.9,11.86-2.29,9.13-1.44,7.54-12,23.58-9.48,14.36-10.93,16.81-17.66,29.16-1.6,2.88-3.85,6.91-5,8.93a84.29,84.29,0,0,0-7.73,17.48c-1.54,4.9-1.65,5.77-1.65,11.77.06,3.55.11,25.55.11,25.55l1.19,19.11c-65.14,29.68-68.24,72.29-68.24,72.29,1.54,0-5.92-46.24-68.92-71.66l-.3-9.56c-.35-11.53-.85-14.7-3.14-21.28-.95-2.78-2.2-6.91-2.75-9.17a77.83,77.83,0,0,0-2.39-7.68,52.51,52.51,0,0,1-2.2-7,67.33,67.33,0,0,0-3.09-8.64c-1.3-2.93-2.5-5.81-2.75-6.49s-1.54-3.89-2.94-7.2c-5.69-13.3-7-16.86-8.73-23.1-2.75-10-4-20.8-4.74-41.74l-.45-12.25,1.55-2.88a17.83,17.83,0,0,1,9.08-8.16c5.88-2.64,6.28-2.59,3.09.24s-5.74,6.72-4.44,6.72c.2,0,.8-.76,1.35-1.73,2.14-3.84,9.58-8.88,15.71-10.66,3.2-.91,8.64-1.58,16-2,8.08-.44,11.53-1.25,16.87-4.14a14.77,14.77,0,0,1,3.29-1.53c.55.62,1.3,8.5,1.35,14.26l.05,6.92-1.9,1a26.11,26.11,0,0,0-4.79,3.46,17.11,17.11,0,0,1-7,4c-2.29.82-4.94,1.78-5.93,2.21a37.56,37.56,0,0,0-8.49,5.91c-.4.43.1.24,1-.43a55.22,55.22,0,0,1,12.58-6.15,34.5,34.5,0,0,0,9.63-5.09,27.47,27.47,0,0,1,4.89-3.08c.44,0,2.79,4,4.24,7.21a16.74,16.74,0,0,1-2.65,3.55c-1.49,1.78-2.74,3.61-2.74,4,0,.91-2.55,5-6.14,9.94-1.4,1.82-2,2.93-1.4,2.45,1.55-1.35,6.54-8.17,8.79-12s5.53-7.73,6-7.06a14.25,14.25,0,0,0,2.75,2l2.44,1.54-.95,1.24a42.87,42.87,0,0,0-3,6.49c-2.39,6.15-3,7-8,11.81a51.06,51.06,0,0,0-5,5.29c-.8,1.1-.15.62,1.94-1.4a23.3,23.3,0,0,1,4.69-3.65c3.35-1.34,4.84-3.65,7.44-11.76a41,41,0,0,1,2.19-5.38l1.2-2.26,3.34,1.25c1.9.67,3.8,1.34,4.25,1.44s.79.58.64,1.3c-2,9.27-1.54,8.21-7.28,15.37-1.05,1.29-4.54,9.84-4.29,10.51,0,.24,1-1.44,2-3.79a28.58,28.58,0,0,1,3.45-6c4.14-4.56,6.18-8.88,6.73-14.21l.3-3,3.29-.19c3.6-.24,6.64-1.49,11.63-4.8l2.89-1.88-1.94,5.19a154,154,0,0,1-8,18.15c-3.4,6.92-3.55,7.35-4,11.05l-.35,2.88-.94-3.6a19.51,19.51,0,0,1,.15-12.2c1.14-3.41,1.54-9.89.59-9.89-.29,0-.49.57-.49,1.29a59.26,59.26,0,0,1-1.25,7.11c-1.5,7.06-1.55,9-.2,14.12,1,3.75,1,4.13.25,7.25a65,65,0,0,1-2.5,7.64c-4.74,11.67-5.63,16.33-4,21.9a10.59,10.59,0,0,0,1.3,3.41c.25.14.2-.34-.15-1.1a21,21,0,0,1-.55-5.43c0-3.56.3-4.8,2-9.61,1.09-3,2.94-8,4-11,2.24-6.14,2-6.24,3.09,2.12A67.2,67.2,0,0,0,505,378.38c6.44,10.85,18.27,19,33.83,23.34a79.54,79.54,0,0,0,16.47,3c6,.58,9.23.39,4.39-.28-1.5-.2-5.34-.87-8.48-1.44-18.17-3.56-27.55-7.64-36.33-15.8-10.12-9.47-15.21-21.23-17.56-40.59a32.54,32.54,0,0,0-.8-4.9,14,14,0,0,1,.25-3.36c.4-2.21,1.75-5.38,5-11.72,2.45-4.8,4.49-8.93,4.49-9.12a42.2,42.2,0,0,1,1.75-4.56c.9-2.26,2-5.14,2.34-6.39l.65-2.36,1.35,1,1.35,1-1.5,2.93c-2.5,4.8-3.49,9.46-3.69,17l-.2,6.73.75-6.25a48.42,48.42,0,0,1,3-12.87c1.25-3.6,2.49-6.58,2.74-6.58a4.74,4.74,0,0,1,1.5.53,12.6,12.6,0,0,0,4.24.48l3.19-.05-2,2.84c-2.2,3-3.14,5.81-3.74,10.71-.5,4,0,3.45,1-1.16.79-3.94,1.89-6.29,4.59-10.27a7.54,7.54,0,0,1,4-3.32c2.69-1,6.13-4,7.83-6.87l1.2-2.06.3,4.22a53.19,53.19,0,0,0,3.39,14.46c1.5,3.56,1.7,2.83.3-1.15-1.7-4.8-3-13.16-2.69-17a18.46,18.46,0,0,1,4.79-10.76,21.15,21.15,0,0,0,2.69-3.51c.45-1,.55-.91,1.4,1.44.45,1.35,1,3.27,1.19,4.18a43.24,43.24,0,0,0,3.35,9.51c2.49,5.24,3.44,6.58,14.07,20.22a93.26,93.26,0,0,0,11.77,11.82c3.1,2.4,8.78,5.52,11.48,6.24.7.19-.65-.77-2.95-2.11a74.62,74.62,0,0,1-18-14.7c-2.44-2.69-8.48-10.57-8.48-11a24.89,24.89,0,0,0-1.7-2.73,139.84,139.84,0,0,1-6.93-13.4c-.15-.39,2.79,2.2,6.58,5.81,5.49,5.23,7.59,6.91,11,8.74,2.35,1.25,5.24,2.83,6.49,3.5l2.24,1.25-2.49-2.21c-1.4-1.2-5.44-4.17-9-6.62-8.58-5.82-14.52-11.48-16.92-16.19a16.25,16.25,0,0,1-1.59-3.7c.1-.14,1,.34,2.14,1A30.56,30.56,0,0,0,556,287.7c2.74.67,6,1.54,7.33,1.92a8.31,8.31,0,0,0,2.4.43c0-.57-5.59-2.64-8.93-3.31a22.32,22.32,0,0,1-12.13-6.44l-2.54-2.64,3.19-.81c4.54-1.11,5.69-1.73,7.34-4,2.34-3.22,2.34-3.55,0-1.15a10.43,10.43,0,0,1-3.44,2.45l-6,1.29c-5.34,1.2-5.05,1.2-14.68-1.73a80.41,80.41,0,0,1-21-10.13,49.3,49.3,0,0,1-4.74-3.7c-.2-.29-.4-.33-.4-.14,0,.38-3.69-2-6.74-4.47a63.16,63.16,0,0,1-5-4.61c-4-3.94-6.53-8.16-8.73-14.6l-1.54-4.42.74-3.74a24.5,24.5,0,0,1,1.7-5.57c1.35-2.55,4.69-5.53,8.33-7.45l3-1.63ZM545,310c2.15,5.9,5.59,11.52,12.52,20.46,1.4,1.82,4.1,5.42,5.89,7.92,6.94,9.46,10.13,12.05,16.67,13.4,2.34.48,5.69.72,4.34.29-.3-.1-2.15-.63-4.19-1.25-5.49-1.63-9.38-4.8-15-12.39-1.25-1.64-3.69-4.76-5.44-6.92-6-7.39-9.43-13.11-14.57-24.3C543.5,303.45,543.35,305.47,545,310Zm-20.86,16.47q3.23,16.5,18.71,30.3c6.74,6,7.19,6.06,1.15.2-2.74-2.69-5.68-5.77-6.48-6.78s-1.95-2.44-2.55-3.12a55.43,55.43,0,0,1-9.53-18.44C524.59,325,523.5,323.34,524.14,326.46ZM546,330.54c1.2,2.35,2.84,5.24,3.59,6.44,6.64,10.56,16.07,19.3,26,24.16,3.74,1.82,3.74,1.29,0-.92-10.68-6.29-22.06-18.44-29.84-31.84C543.55,324.59,543.7,326.32,546,330.54Zm-121.75,41.3a27.2,27.2,0,0,0,4.19,10.86l2,2.78-.8,1.69c-.65,1.24-.7,1.77-.25,2.2s.6.34.6-.43c0-.57.2-1.2.5-1.34.55-.34.65.14.5,2.45-.1,1.92,2.49,9.51,4.59,13.3,1.8,3.36,5.49,8.6,5.79,8.31a6.1,6.1,0,0,0-1.3-2.3,48.88,48.88,0,0,1-5.54-10.76c-.3-1.06-.95-4.37-1.49-7.4l-1-5.52,1.84-1.88,1.85-1.92-1.9,1.35a5,5,0,0,1-2.59,1.1c-1.65-.62-4.64-7.3-6.09-13.69C424.65,368.53,423.9,369.54,424.25,371.84Zm153.23,11.63c-11,13.25-14.22,14.65-30.48,13.54-9.18-.58-10.33-.86-16.67-3.7-5-2.25-6.54-2.49-2.94-.48A50,50,0,0,0,541,398c6.43,1.34,18.61,1.06,22.85-.53s9-6.15,14.32-13.54c2.5-3.41,4.39-6.2,4.29-6.2S580.13,380.3,577.48,383.47Zm-86.57,2.78a66.84,66.84,0,0,0,7.74,9.8c2.09,1.78,5.14,3.36,12.47,6.44,3.54,1.49,6.54,2.78,6.64,2.88a54.75,54.75,0,0,1-7,.09c-7.78-.09-9.88.29-12.87,2.45-1.3.92-2.6,1.3-5.89,1.59-4.79.48-15,3-23.85,5.81-7.38,2.4-12,2.88-13.37,1.44a8.18,8.18,0,0,1-1.35-3.31l-.45-2.31.15,2.4a14,14,0,0,0,.55,3.22c.3.77.1.82-2.59.58a8.84,8.84,0,0,0-5.34.72c-2,.81-2.3,1.1-1.85,1.68s.85.57,2.45-.05c1.44-.58,3-.67,7.83-.38,6.54.33,7.14.24,22.95-4.57a80.66,80.66,0,0,1,18.46-3.65c2.45-.14,5.29-.38,6.24-.57,1.6-.29,1.5-.34-1.25-.58l-3-.24,2.94-1.39c2.9-1.4,2.95-1.4,12-1.4,8.33,0,9.38.1,13.27,1.3a53.6,53.6,0,0,0,18.46,2c9.28-.58,9.48-1,.5-1-7,0-9.68-.19-13.52-1-6.09-1.29-15.92-4.94-18-6.62a31.65,31.65,0,0,1-6.74-8.89c-.7-1.44-1.85-3.75-2.49-5l-1.2-2.4.25,2.06c.35,3.41,3.59,9.41,6.58,12.1,1.45,1.35,2.6,2.41,2.55,2.41s-1.25-.44-2.64-.92c-6.84-2.49-12.38-7-17.52-14.12C490.07,384,489.32,383.76,490.91,386.25Zm40.17,29.2c-14.52.87-17.51,1.2-26.74,3.41-6.84,1.59-13.23,2.93-28.2,5.77-3.59.67-9,1.87-12.12,2.64-5.19,1.34-15.72,3.31-17.66,3.31-.55,0-.95-.53-1.15-1.58-.15-.82-.75-3.41-1.35-5.77-1.14-4.46-2.29-5.76-1.69-1.92,1.84,12,2.34,16.28,2.64,22.58.15,4,.5,7.34.7,7.34.75,0,1.1-5.52.75-12l-.3-6.49,4.34-.09a32.59,32.59,0,0,0,8.63-1.35c5.59-1.58,14.67-3.79,20-4.8,8.88-1.68,15.92-3.27,21.45-4.8,11-3.08,17-4.13,26.9-4.61a140.93,140.93,0,0,0,14.27-1.44c4.84-1,7.43-1.83,3.49-1.2C543.9,414.64,537.67,415.07,531.08,415.45Zm-37.57,25.94c-10.23,2-18.86,3.5-19.11,3.36a.42.42,0,0,0-.6.1c-.05.24-2.44,1.1-5.24,2-4.59,1.44-10.48,4.18-10,4.61a15.1,15.1,0,0,0,3.59-1,127.73,127.73,0,0,1,14-3.37c.55-.09,3.25-.81,6-1.58a102.24,102.24,0,0,1,11.23-2.45,104.73,104.73,0,0,0,12.42-2.88c3.4-1.06,6.49-1.92,6.84-1.92a1.27,1.27,0,0,0,1-.58c.25-.38.1-.43-.5-.24S503.79,439.42,493.51,441.39Z" transform="translate(-4.11 -0.15)"/><path class="cls-1" d="M452.59,225.22a5.69,5.69,0,0,0,3.65.14c2-.43,2.44-.34,5.93,1.35,2.05,1,3.75,2.11,3.75,2.45a4.59,4.59,0,0,0,.35,1.44c.29.72.05.67-1.35-.29s-2.6-1.2-7.19-1.59c-3-.24-5.78-.67-6.13-1-.75-.72-1.4-3.22-.85-3.17A7.39,7.39,0,0,1,452.59,225.22Z" transform="translate(-4.11 -0.15)"/><path class="cls-1" d="M517.06,270.89a41.47,41.47,0,0,0,6.34,2.69c1.84.62,3.19,1.3,3,1.54s-.05.33.25.14a5.25,5.25,0,0,1,2.69.24c1.2.29,4.14.82,6.59,1.2,4.19.58,4.59.72,6.64,2.69a9.75,9.75,0,0,1,2.14,2.55,16.3,16.3,0,0,1-2,3.12c-2,2.54-2,2.59-1.7,1.06a20.09,20.09,0,0,0,.15-5.62c0-.48-.4-.63-1.15-.44-2.89.68-16.26-1.68-20.51-3.65a13.55,13.55,0,0,0-2.34-1c-.75,0-.3.77.85,1.44l1.25.72-2.85,2.17a21.92,21.92,0,0,0-3.94,3.79c-1.05,1.54-1.15,1.54-1.15.48,0-.62.45-3.65,1-6.68a68.43,68.43,0,0,0,1-6.86c0-.72.15-1.3.35-1.25A25.07,25.07,0,0,1,517.06,270.89Z" transform="translate(-4.11 -0.15)"/><path class="cls-1" d="M521.8,278.77c1.65.91,11.77,2.35,14.82,2.11l3.14-.24v1.59c0,3.26-1,8.26-1.89,9.5a29.24,29.24,0,0,0-2.3,4.47,36.72,36.72,0,0,1-2.79,5.33l-1.35,2.12-2.94-.2c-7.14-.43-10.43-1.87-14.57-6.14l-2.6-2.74v-3.51c0-3.89.55-4.9,5.54-10C519.4,278.38,520.3,278,521.8,278.77Z" transform="translate(-4.11 -0.15)"/><path class="cls-1" d="M513.82,299.47c2.84,2.78,6.78,4.27,12.37,4.66,3.79.28,4,.33,3,1a13.19,13.19,0,0,1-8.48,2c-3.74-.53-5.09-1.1-7.63-3.36-2.15-1.92-2.25-2.07-1.95-4.23a18.8,18.8,0,0,1,.35-2.3Z" transform="translate(-4.11 -0.15)"/></g><g id="Alas"><path class="cls-1" d="M936.08,9.78c-.38,13.65-6.88,39.05-13.38,51.76C903,100.4,863.05,131.48,799.77,157.26c-16.82,7-64.62,22.18-69.59,22.18S695,190.63,683.53,196.69c-43.4,22.94-43.59,66.54-.19,79.43l13.19,4,2.29,16.5c7.27,50.42-8.79,92.5-46.45,120.94-16.64,12.32-32.7,20.28-60.61,29.19-26.77,8.72-42.83,17.82-57.55,32.6-13.57,13.46-29.25,43.23-23.13,43.23,1,0,3.63-2.09,6.12-4.74,5.35-5.69,26.57-19.72,39.19-26.16,20.27-9.86,63.66-22.18,79.15-22.18,7.07,0,9.37-3,3.83-4.74-5.93-1.9-35.37-1.52-46.65.76-5.17.95-9.75,1.51-10.14,1.14-1.14-1.14,22.75-11.76,59.84-26.55,41.68-16.67,55.26-24.64,72.65-42.84,19.7-20.66,26.77-37.91,28.87-69,1.15-18.39-2.86-44.36-9.94-62-3.25-8.34-3.25-9.47-.38-15.16,8.6-17.82,35.18-38.29,83.17-63.69,13.76-7.4,29.82-16.31,35.37-19.91,38.42-24.45,67.29-58.19,79.14-92.88,6.12-17.82,9.18-45.88,6.89-62L936.28.31Z" transform="translate(-4.11 -0.15)"/><path class="cls-1" d="M81.26,6.18c-1,.76-1.53,9.48-1.53,19.53,0,55.16,30.21,104.45,86,141.22,6.88,4.55,25.81,15.36,42.06,23.89,45.51,24.07,67.49,40.56,76.67,57.63,4.59,8.53,4.59,8.53,1,17.63-7.84,20.66-9.57,29.95-9.57,53.64-.19,19.91.58,25.78,4.21,37,6.31,18.57,14,31.27,27.15,44.17,14.91,14.59,35.75,26,75.52,41.51,33.84,13.08,51.62,21,50.09,22.56-.38.38-8,0-16.83-.95-14.33-1.52-38.62-.19-41.1,2.27-.57.57,5.35,1.9,13,3.23,44.74,7,86.8,24.26,111.08,45.49,5,4.36,9.56,7.59,9.94,7.21,2.1-1.9-5.54-19-13.19-30-15.3-21.61-36.71-35.44-74.56-48.14-34.61-11.76-55.83-24.27-73.42-44-18.74-20.85-29.06-48.91-29.06-79.62,0-16.3,3.06-36.59,5.93-39.43.95-1.14,6.5-3.22,12.23-5.12,21.23-6.44,31.55-18,31.55-35.07-.19-12.32-5.16-22.74-15.87-32.41-14.72-13.46-33.46-21.23-80.49-33.74-68.82-18.39-113.95-42.28-149.51-79.24-24.47-25.21-35-46.64-38.42-77.72C83.17,10.54,82,5.42,81.26,6.18Z" transform="translate(-4.11 -0.15)"/><path class="cls-1" d="M982.93,60.4c-1.34,3.41-4,10.24-5.74,15.16-12.24,33-49.71,69.95-93.11,91.75-9.75,4.74-21.41,12.51-28.1,18.58-18,16.68-38.43,48.72-47,73.93a121.44,121.44,0,0,1-5.16,12.89c-4,7.58,0,5.12,12.8-7.58,15.49-15.36,34.61-28.06,56.79-37.92,72.46-32,109-81.32,113.56-153.54.57-10.62.57-19.34-.19-19.34S984.26,57.18,982.93,60.4Z" transform="translate(-4.11 -0.15)"/><path class="cls-1" d="M33.84,75.37c0,46.07,21.23,89.67,58.7,119.62,18.93,15.16,22.37,17.25,50.47,31.09,30.59,15,50.09,28,62.9,41.89,5.16,5.5,9.75,10,10.32,10,3.06,0-15.1-40.76-26.57-59.53C183,207.31,165,186.27,157.54,180.58c-3.63-2.84-15.48-9.86-26.38-15.54-46.27-24.46-75.33-55-91.77-95.92L34,55.28Z" transform="translate(-4.11 -0.15)"/><path class="cls-1" d="M993.44,174.52c-21.6,26.91-59.27,49.47-113.37,67.86C849.48,252.81,842.21,257,824.82,274c-12.81,12.89-35,41.7-33.46,43.41.38.38,6.69-3.23,13.76-7.77C831.32,292.8,862.67,282,896.7,278c25.81-3,39.77-8.34,59.65-23.13,22.75-16.68,41.49-50,46.27-82.65.76-5.31,1.33-9.86,1-9.86C1003.38,162.38,998.79,167.88,993.44,174.52Z" transform="translate(-4.11 -0.15)"/><path class="cls-1" d="M17.21,173.76C18.74,187.22,26.39,209,34,222.67c14.72,25.78,48.17,49.28,76.28,53.45,33.07,5.12,40.15,6.45,53.53,10.43A195.75,195.75,0,0,1,216,310.81c7.08,4.74,12.81,8,12.81,7.2,0-2.84-19.11-28.43-29.63-39.8-14.53-15.36-32.5-26.73-54.49-34.31-60.8-20.86-98.46-43-121-71.09l-7.65-9.48Z" transform="translate(-4.11 -0.15)"/><path class="cls-1" d="M192.72,199.54c27,28.43,36.13,49.85,40.72,95,3.44,32.23,6.31,44.55,14.72,62.18,6.89,14.59,24.09,33.93,36.33,40.56l8.22,4.74-8.8-11.37c-10.7-13.65-15.86-23.7-19.69-38.1-5.54-21.42-2.48-58.2,7.08-81.52l4-9.85-5.16-7.59c-7.27-10.42-28.68-30.33-42.25-39.43-6.31-4.17-19.12-11.75-28.68-16.68L182,188.35Z" transform="translate(-4.11 -0.15)"/><path class="cls-1" d="M819.27,197.83c-9,4.74-21,11.76-26.77,15.55-13.19,8.53-35,28.81-42.06,39.05l-5.35,7.77,5.74,18.95c5.35,17.07,5.92,21.23,6.12,45.31,0,23.51-.39,27.87-4.4,37.91-5.36,13.08-13.77,26.16-22,33.56-7.65,7-4,6.63,7.07-.57,19.51-12.7,35.57-36.59,42.45-63.32,1.53-6.25,3.63-20.28,4.59-31.27,4.2-47.78,17.78-79.81,43.4-102.18,5-4.36,8.6-8.15,8.22-8.53S828.26,193.09,819.27,197.83Z" transform="translate(-4.11 -0.15)"/><path class="cls-1" d="M18.36,254.32c28.48,53.27,58.69,78.1,104.39,86.06,7.45,1.33,29.82,3,49.7,4,36.14,1.52,51.82,4.18,61.18,10.62,13.77,9.67,1-7.39-16.82-22.18-14.34-11.94-34.22-23.12-48.56-27.3-5.16-1.51-17.59-4-28.11-5.68C89.29,291.67,43.79,271.57,18.74,246L8.23,235.37Z" transform="translate(-4.11 -0.15)"/><path class="cls-1" d="M997.84,247.88c-25.43,26-66.15,43.6-119.68,51.94-26.77,4.36-41.49,9.29-57.93,19.9C804.74,330,777.4,354.79,779.7,356.88c.57.75,3.25,0,5.54-1.52,11.47-7.39,23.33-9.29,63.67-11.18,22.17-.95,46.26-2.85,53.53-4.55,30.59-6.45,63.09-29.2,82-57.44,10.13-15.17,24.85-41.9,23.7-43C1007.78,238.59,1003.19,242.57,997.84,247.88Z" transform="translate(-4.11 -0.15)"/><path class="cls-1" d="M69.6,342.85C75.71,353.66,99,375.26,110.7,381c21.6,10.24,30.78,11.57,74.18,9.67,21.6-.95,48.18-1.52,59.27-1.33l20.07.38-4.78-3.6c-8.41-6.45-31.16-16.68-45.88-20.85-9.37-2.66-22.18-4.36-37.28-4.93-53-2.09-80.3-7-100-18L66,336.59Z" transform="translate(-4.11 -0.15)"/><path class="cls-1" d="M946.41,340.57c-16.64,11-44.36,16.68-89.86,19-23.9,1.14-38.81,2.66-48.94,5.31-16.06,4.36-36.14,13.27-44.36,19.71l-5.35,4.36,33.08.95c18.16.38,46.45.95,62.7.95,28.11,0,30.4-.19,43.79-5.5,17.58-6.82,34.41-19.53,46.64-34.88,5.17-6.63,9.18-12.32,8.61-12.7C952.34,337.35,949.47,338.68,946.41,340.57Z" transform="translate(-4.11 -0.15)"/><path class="cls-1" d="M213.37,403.13c-15.11,2.65-26.58,10.62-26.58,18.2,0,15.54,18.55,20.47,41.11,11a265.68,265.68,0,0,1,52.38-16.11c14.53-2.46,18.55-4.74,11.28-6.45C263.46,403.32,228.47,400.29,213.37,403.13Z" transform="translate(-4.11 -0.15)"/><path class="cls-1" d="M742.41,406.73c-10.32,1.9-19.12,3.79-19.69,4.36-.76.57,5.55,2.47,13.77,4.36,21.79,4.74,40.15,10.43,53.15,16.49,21.79,10.05,42.82,5.31,42.82-9.85,0-7-4-11.19-14.91-15.36C804.93,402,769.18,402,742.41,406.73Z" transform="translate(-4.11 -0.15)"/><path class="cls-1" d="M284.68,426.07c-26,2.46-44.55,10.05-51.05,21.23-5.73,9.67.58,18.39,13.58,18.39,6.88,0,11.66-2.85,23.7-14.22a96.28,96.28,0,0,1,23.9-15.73c7.46-3.42,16.06-7.4,19.12-8.91l5.74-2.66-9.56.19C304.94,424.36,293.47,425.12,284.68,426.07Z" transform="translate(-4.11 -0.15)"/><path class="cls-1" d="M702.65,425.12c0,.95,5.35,3.79,12,6.44,17,6.64,27.15,12.52,33.27,19.53,11.85,13.46,23.51,17.82,33.65,12.51,17.78-9.29-1.53-29.76-33.65-35.64C731.52,424.93,702.65,423.22,702.65,425.12Z" transform="translate(-4.11 -0.15)"/><path class="cls-1" d="M317.56,439.15C291,446,276.65,456.78,276.65,469.48c0,5.87,1.53,8.34,7.07,11.18,11.67,5.88,21.8-.19,24.09-14.59,1.34-7.4,9.75-17.83,21.42-26.36C336.3,434.6,335,434.6,317.56,439.15Z" transform="translate(-4.11 -0.15)"/><path class="cls-1" d="M685.44,436.12c0,.56,4,3.78,8.8,7.2,9,6.44,16.44,17.06,18.92,27.11,1.72,8,6.31,12.32,12.62,12.32,20.65,0,22.37-21.8,2.68-33.18C717.94,443.32,685.44,433.27,685.44,436.12Z" transform="translate(-4.11 -0.15)"/></g></svg>